<svg width="150" height="50" viewBox="0 0 150 50" fill="none" xmlns="http://www.w3.org/2000/svg">
<rect width="150" height="50" rx="1" fill="#393939"/>
<path d="M18.544 18.256H20.506L25.996 31H23.404L22.216 28.084H16.69L15.538 31H13L18.544 18.256ZM21.424 26.14L19.462 20.956L17.464 26.14H21.424ZM34.0542 29.704H34.0182C33.7062 30.232 33.2862 30.616 32.7582 30.856C32.2302 31.096 31.6602 31.216 31.0482 31.216C30.3762 31.216 29.7762 31.102 29.2482 30.874C28.7322 30.634 28.2882 30.31 27.9162 29.902C27.5442 29.494 27.2622 29.014 27.0702 28.462C26.8782 27.91 26.7822 27.316 26.7822 26.68C26.7822 26.044 26.8842 25.45 27.0882 24.898C27.2922 24.346 27.5742 23.866 27.9342 23.458C28.3062 23.05 28.7502 22.732 29.2662 22.504C29.7822 22.264 30.3462 22.144 30.9582 22.144C31.3662 22.144 31.7262 22.186 32.0382 22.27C32.3502 22.354 32.6262 22.462 32.8662 22.594C33.1062 22.726 33.3102 22.87 33.4782 23.026C33.6462 23.17 33.7842 23.314 33.8922 23.458H33.9462V17.392H36.1062V31H34.0542V29.704ZM28.9422 26.68C28.9422 27.016 28.9962 27.34 29.1042 27.652C29.2242 27.964 29.3922 28.24 29.6082 28.48C29.8362 28.72 30.1062 28.912 30.4182 29.056C30.7302 29.2 31.0842 29.272 31.4802 29.272C31.8762 29.272 32.2302 29.2 32.5422 29.056C32.8542 28.912 33.1182 28.72 33.3342 28.48C33.5622 28.24 33.7302 27.964 33.8382 27.652C33.9582 27.34 34.0182 27.016 34.0182 26.68C34.0182 26.344 33.9582 26.02 33.8382 25.708C33.7302 25.396 33.5622 25.12 33.3342 24.88C33.1182 24.64 32.8542 24.448 32.5422 24.304C32.2302 24.16 31.8762 24.088 31.4802 24.088C31.0842 24.088 30.7302 24.16 30.4182 24.304C30.1062 24.448 29.8362 24.64 29.6082 24.88C29.3922 25.12 29.2242 25.396 29.1042 25.708C28.9962 26.02 28.9422 26.344 28.9422 26.68ZM45.3921 29.704H45.3561C45.0441 30.232 44.6241 30.616 44.0961 30.856C43.5681 31.096 42.9981 31.216 42.3861 31.216C41.7141 31.216 41.1141 31.102 40.5861 30.874C40.0701 30.634 39.6261 30.31 39.2541 29.902C38.8821 29.494 38.6001 29.014 38.4081 28.462C38.2161 27.91 38.1201 27.316 38.1201 26.68C38.1201 26.044 38.2221 25.45 38.4261 24.898C38.6301 24.346 38.9121 23.866 39.2721 23.458C39.6441 23.05 40.0881 22.732 40.6041 22.504C41.1201 22.264 41.6841 22.144 42.2961 22.144C42.7041 22.144 43.0641 22.186 43.3761 22.27C43.6881 22.354 43.9641 22.462 44.2041 22.594C44.4441 22.726 44.6481 22.87 44.8161 23.026C44.9841 23.17 45.1221 23.314 45.2301 23.458H45.2841V17.392H47.4441V31H45.3921V29.704ZM40.2801 26.68C40.2801 27.016 40.3341 27.34 40.4421 27.652C40.5621 27.964 40.7301 28.24 40.9461 28.48C41.1741 28.72 41.4441 28.912 41.7561 29.056C42.0681 29.2 42.4221 29.272 42.8181 29.272C43.2141 29.272 43.5681 29.2 43.8801 29.056C44.1921 28.912 44.4561 28.72 44.6721 28.48C44.9001 28.24 45.0681 27.964 45.1761 27.652C45.2961 27.34 45.3561 27.016 45.3561 26.68C45.3561 26.344 45.2961 26.02 45.1761 25.708C45.0681 25.396 44.9001 25.12 44.6721 24.88C44.4561 24.64 44.1921 24.448 43.8801 24.304C43.5681 24.16 43.2141 24.088 42.8181 24.088C42.4221 24.088 42.0681 24.16 41.7561 24.304C41.4441 24.448 41.1741 24.64 40.9461 24.88C40.7301 25.12 40.5621 25.396 40.4421 25.708C40.3341 26.02 40.2801 26.344 40.2801 26.68ZM55.4142 18.256H60.3822C60.8622 18.256 61.3362 18.316 61.8042 18.436C62.2722 18.544 62.6862 18.73 63.0462 18.994C63.4182 19.246 63.7182 19.576 63.9462 19.984C64.1742 20.392 64.2882 20.884 64.2882 21.46C64.2882 22.18 64.0842 22.774 63.6762 23.242C63.2682 23.71 62.7342 24.046 62.0742 24.25V24.286C62.4702 24.334 62.8362 24.448 63.1722 24.628C63.5202 24.796 63.8142 25.018 64.0542 25.294C64.2942 25.558 64.4802 25.87 64.6122 26.23C64.7562 26.578 64.8282 26.956 64.8282 27.364C64.8282 28.06 64.6902 28.642 64.4142 29.11C64.1382 29.566 63.7722 29.938 63.3162 30.226C62.8722 30.502 62.3562 30.7 61.7682 30.82C61.1922 30.94 60.6042 31 60.0042 31H55.4142V18.256ZM57.6822 23.44H59.7522C60.5082 23.44 61.0722 23.296 61.4442 23.008C61.8282 22.708 62.0202 22.318 62.0202 21.838C62.0202 21.286 61.8222 20.878 61.4262 20.614C61.0422 20.338 60.4182 20.2 59.5542 20.2H57.6822V23.44ZM57.6822 29.056H59.7702C60.0582 29.056 60.3642 29.038 60.6882 29.002C61.0242 28.966 61.3302 28.882 61.6062 28.75C61.8822 28.618 62.1102 28.432 62.2902 28.192C62.4702 27.94 62.5602 27.604 62.5602 27.184C62.5602 26.512 62.3382 26.044 61.8942 25.78C61.4622 25.516 60.7842 25.384 59.8602 25.384H57.6822V29.056ZM66.4561 26.68C66.4561 25.996 66.5761 25.378 66.8161 24.826C67.0681 24.262 67.4041 23.782 67.8241 23.386C68.2441 22.99 68.7421 22.684 69.3181 22.468C69.8941 22.252 70.5061 22.144 71.1541 22.144C71.8021 22.144 72.4141 22.252 72.9901 22.468C73.5661 22.684 74.0641 22.99 74.4841 23.386C74.9041 23.782 75.2341 24.262 75.4741 24.826C75.7261 25.378 75.8521 25.996 75.8521 26.68C75.8521 27.364 75.7261 27.988 75.4741 28.552C75.2341 29.104 74.9041 29.578 74.4841 29.974C74.0641 30.37 73.5661 30.676 72.9901 30.892C72.4141 31.108 71.8021 31.216 71.1541 31.216C70.5061 31.216 69.8941 31.108 69.3181 30.892C68.7421 30.676 68.2441 30.37 67.8241 29.974C67.4041 29.578 67.0681 29.104 66.8161 28.552C66.5761 27.988 66.4561 27.364 66.4561 26.68ZM68.6161 26.68C68.6161 27.016 68.6701 27.34 68.7781 27.652C68.8981 27.964 69.0661 28.24 69.2821 28.48C69.5101 28.72 69.7801 28.912 70.0921 29.056C70.4041 29.2 70.7581 29.272 71.1541 29.272C71.5501 29.272 71.9041 29.2 72.2161 29.056C72.5281 28.912 72.7921 28.72 73.0081 28.48C73.2361 28.24 73.4041 27.964 73.5121 27.652C73.6321 27.34 73.6921 27.016 73.6921 26.68C73.6921 26.344 73.6321 26.02 73.5121 25.708C73.4041 25.396 73.2361 25.12 73.0081 24.88C72.7921 24.64 72.5281 24.448 72.2161 24.304C71.9041 24.16 71.5501 24.088 71.1541 24.088C70.7581 24.088 70.4041 24.16 70.0921 24.304C69.7801 24.448 69.5101 24.64 69.2821 24.88C69.0661 25.12 68.8981 25.396 68.7781 25.708C68.6701 26.02 68.6161 26.344 68.6161 26.68ZM77.4424 26.68C77.4424 25.996 77.5624 25.378 77.8024 24.826C78.0544 24.262 78.3904 23.782 78.8104 23.386C79.2304 22.99 79.7284 22.684 80.3044 22.468C80.8804 22.252 81.4924 22.144 82.1404 22.144C82.7884 22.144 83.4004 22.252 83.9764 22.468C84.5524 22.684 85.0504 22.99 85.4704 23.386C85.8904 23.782 86.2204 24.262 86.4604 24.826C86.7124 25.378 86.8384 25.996 86.8384 26.68C86.8384 27.364 86.7124 27.988 86.4604 28.552C86.2204 29.104 85.8904 29.578 85.4704 29.974C85.0504 30.37 84.5524 30.676 83.9764 30.892C83.4004 31.108 82.7884 31.216 82.1404 31.216C81.4924 31.216 80.8804 31.108 80.3044 30.892C79.7284 30.676 79.2304 30.37 78.8104 29.974C78.3904 29.578 78.0544 29.104 77.8024 28.552C77.5624 27.988 77.4424 27.364 77.4424 26.68ZM79.6024 26.68C79.6024 27.016 79.6564 27.34 79.7644 27.652C79.8844 27.964 80.0524 28.24 80.2684 28.48C80.4964 28.72 80.7664 28.912 81.0784 29.056C81.3904 29.2 81.7444 29.272 82.1404 29.272C82.5364 29.272 82.8904 29.2 83.2024 29.056C83.5144 28.912 83.7784 28.72 83.9944 28.48C84.2224 28.24 84.3904 27.964 84.4984 27.652C84.6184 27.34 84.6784 27.016 84.6784 26.68C84.6784 26.344 84.6184 26.02 84.4984 25.708C84.3904 25.396 84.2224 25.12 83.9944 24.88C83.7784 24.64 83.5144 24.448 83.2024 24.304C82.8904 24.16 82.5364 24.088 82.1404 24.088C81.7444 24.088 81.3904 24.16 81.0784 24.304C80.7664 24.448 80.4964 24.64 80.2684 24.88C80.0524 25.12 79.8844 25.396 79.7644 25.708C79.6564 26.02 79.6024 26.344 79.6024 26.68ZM88.8607 17.392H91.0207V25.942L94.3507 22.36H97.1227L93.4147 26.284L97.3567 31H94.4947L91.0567 26.59H91.0207V31H88.8607V17.392Z" fill="white"/>
<path d="M129.923 25.4591V13H113.293C111.493 13 110.021 14.4722 110.021 16.2715V34.7285C110.021 36.5353 111.486 38 113.293 38H128.578C132.078 38 134.994 35.1365 134.979 31.6367C134.966 28.5938 132.796 26.0506 129.923 25.4591ZM128.46 25.3321C125.23 25.4243 122.597 27.9471 122.331 31.1322H115.935V14.4622H128.46V25.3321ZM113.272 14.4622H114.472V31.1322H113.455C112.74 31.1322 112.076 31.352 111.526 31.7271V16.2081C111.526 15.2454 112.309 14.4622 113.272 14.4622ZM113.455 36.5378C112.368 36.5378 111.483 35.6533 111.483 34.5661C111.483 33.4789 112.368 32.5944 113.455 32.5944H122.377C122.438 33.0113 122.54 33.4151 122.679 33.8017H113.769V35.2639H123.433C123.763 35.7397 124.156 36.1686 124.6 36.5378H113.455ZM128.644 36.5378C125.956 36.5378 123.77 34.3518 123.77 31.6646C123.77 28.9775 125.956 26.7915 128.644 26.7915C131.331 26.7915 133.517 28.9775 133.517 31.6646C133.517 34.3518 131.331 36.5378 128.644 36.5378Z" fill="white"/>
<path d="M129.375 29.4365H127.912V30.9335H126.415V32.3957H127.912V33.8927H129.375V32.3957H130.872V30.9335H129.375V29.4365Z" fill="white"/>
<path d="M119.835 17.3052H124.728V18.7673H119.835V17.3052Z" fill="white"/>
<path d="M118.182 20.4795H126.381V21.9416H118.182V20.4795Z" fill="white"/>
</svg>
