<svg width="113" height="20" viewBox="0 0 113 20" fill="none" xmlns="http://www.w3.org/2000/svg">
<path d="M7.392 1.88105H10.008L17.328 18.873H13.872L12.288 14.985H4.92L3.384 18.873H0L7.392 1.88105ZM11.232 12.393L8.616 5.48105L5.952 12.393H11.232ZM28.0723 17.145H28.0243C27.6083 17.849 27.0483 18.361 26.3443 18.681C25.6403 19.001 24.8803 19.161 24.0643 19.161C23.1683 19.161 22.3683 19.009 21.6643 18.705C20.9763 18.385 20.3843 17.953 19.8883 17.409C19.3923 16.865 19.0163 16.225 18.7603 15.489C18.5043 14.753 18.3763 13.961 18.3763 13.113C18.3763 12.265 18.5123 11.473 18.7843 10.737C19.0563 10.001 19.4323 9.36105 19.9123 8.81705C20.4083 8.27305 21.0003 7.84905 21.6883 7.54505C22.3763 7.22505 23.1283 7.06505 23.9443 7.06505C24.4883 7.06505 24.9683 7.12105 25.3843 7.23305C25.8003 7.34505 26.1683 7.48905 26.4883 7.66505C26.8083 7.84105 27.0803 8.03305 27.3043 8.24105C27.5283 8.43305 27.7123 8.62505 27.8563 8.81705H27.9283V0.729046H30.8083V18.873H28.0723V17.145ZM21.2563 13.113C21.2563 13.561 21.3283 13.993 21.4723 14.409C21.6323 14.825 21.8563 15.193 22.1443 15.513C22.4483 15.833 22.8083 16.089 23.2243 16.281C23.6403 16.473 24.1123 16.569 24.6403 16.569C25.1683 16.569 25.6403 16.473 26.0563 16.281C26.4723 16.089 26.8243 15.833 27.1123 15.513C27.4163 15.193 27.6403 14.825 27.7843 14.409C27.9443 13.993 28.0243 13.561 28.0243 13.113C28.0243 12.665 27.9443 12.233 27.7843 11.817C27.6403 11.401 27.4163 11.033 27.1123 10.713C26.8243 10.393 26.4723 10.137 26.0563 9.94505C25.6403 9.75305 25.1683 9.65705 24.6403 9.65705C24.1123 9.65705 23.6403 9.75305 23.2243 9.94505C22.8083 10.137 22.4483 10.393 22.1443 10.713C21.8563 11.033 21.6323 11.401 21.4723 11.817C21.3283 12.233 21.2563 12.665 21.2563 13.113ZM43.1895 17.145H43.1415C42.7255 17.849 42.1655 18.361 41.4615 18.681C40.7575 19.001 39.9975 19.161 39.1815 19.161C38.2855 19.161 37.4855 19.009 36.7815 18.705C36.0935 18.385 35.5015 17.953 35.0055 17.409C34.5095 16.865 34.1335 16.225 33.8775 15.489C33.6215 14.753 33.4935 13.961 33.4935 13.113C33.4935 12.265 33.6295 11.473 33.9015 10.737C34.1735 10.001 34.5495 9.36105 35.0295 8.81705C35.5255 8.27305 36.1175 7.84905 36.8055 7.54505C37.4935 7.22505 38.2455 7.06505 39.0615 7.06505C39.6055 7.06505 40.0855 7.12105 40.5015 7.23305C40.9175 7.34505 41.2855 7.48905 41.6055 7.66505C41.9255 7.84105 42.1975 8.03305 42.4215 8.24105C42.6455 8.43305 42.8295 8.62505 42.9735 8.81705H43.0455V0.729046H45.9255V18.873H43.1895V17.145ZM36.3735 13.113C36.3735 13.561 36.4455 13.993 36.5895 14.409C36.7495 14.825 36.9735 15.193 37.2615 15.513C37.5655 15.833 37.9255 16.089 38.3415 16.281C38.7575 16.473 39.2295 16.569 39.7575 16.569C40.2855 16.569 40.7575 16.473 41.1735 16.281C41.5895 16.089 41.9415 15.833 42.2295 15.513C42.5335 15.193 42.7575 14.825 42.9015 14.409C43.0615 13.993 43.1415 13.561 43.1415 13.113C43.1415 12.665 43.0615 12.233 42.9015 11.817C42.7575 11.401 42.5335 11.033 42.2295 10.713C41.9415 10.393 41.5895 10.137 41.1735 9.94505C40.7575 9.75305 40.2855 9.65705 39.7575 9.65705C39.2295 9.65705 38.7575 9.75305 38.3415 9.94505C37.9255 10.137 37.5655 10.393 37.2615 10.713C36.9735 11.033 36.7495 11.401 36.5895 11.817C36.4455 12.233 36.3735 12.665 36.3735 13.113ZM56.5523 1.88105H63.1763C63.8163 1.88105 64.4483 1.96105 65.0723 2.12105C65.6963 2.26505 66.2483 2.51305 66.7283 2.86505C67.2243 3.20105 67.6243 3.64105 67.9283 4.18505C68.2323 4.72905 68.3843 5.38505 68.3843 6.15305C68.3843 7.11305 68.1123 7.90505 67.5683 8.52905C67.0243 9.15305 66.3123 9.60105 65.4323 9.87305V9.92105C65.9603 9.98505 66.4483 10.137 66.8963 10.377C67.3603 10.601 67.7523 10.897 68.0723 11.265C68.3923 11.617 68.6403 12.033 68.8163 12.513C69.0083 12.977 69.1043 13.481 69.1043 14.025C69.1043 14.953 68.9203 15.729 68.5523 16.353C68.1843 16.961 67.6963 17.457 67.0883 17.841C66.4963 18.209 65.8083 18.473 65.0243 18.633C64.2563 18.793 63.4723 18.873 62.6723 18.873H56.5523V1.88105ZM59.5763 8.79305H62.3363C63.3443 8.79305 64.0963 8.60105 64.5923 8.21705C65.1043 7.81705 65.3603 7.29705 65.3603 6.65705C65.3603 5.92105 65.0963 5.37705 64.5683 5.02505C64.0563 4.65705 63.2243 4.47305 62.0723 4.47305H59.5763V8.79305ZM59.5763 16.281H62.3603C62.7443 16.281 63.1523 16.257 63.5843 16.209C64.0323 16.161 64.4403 16.049 64.8083 15.873C65.1763 15.697 65.4803 15.449 65.7203 15.129C65.9603 14.793 66.0803 14.345 66.0803 13.785C66.0803 12.889 65.7843 12.265 65.1923 11.913C64.6163 11.561 63.7123 11.385 62.4803 11.385H59.5763V16.281ZM71.2748 13.113C71.2748 12.201 71.4348 11.377 71.7548 10.641C72.0908 9.88905 72.5388 9.24905 73.0988 8.72105C73.6588 8.19305 74.3228 7.78505 75.0908 7.49705C75.8588 7.20905 76.6748 7.06505 77.5388 7.06505C78.4028 7.06505 79.2188 7.20905 79.9868 7.49705C80.7548 7.78505 81.4188 8.19305 81.9788 8.72105C82.5388 9.24905 82.9788 9.88905 83.2988 10.641C83.6348 11.377 83.8028 12.201 83.8028 13.113C83.8028 14.025 83.6348 14.857 83.2988 15.609C82.9788 16.345 82.5388 16.977 81.9788 17.505C81.4188 18.033 80.7548 18.441 79.9868 18.729C79.2188 19.017 78.4028 19.161 77.5388 19.161C76.6748 19.161 75.8588 19.017 75.0908 18.729C74.3228 18.441 73.6588 18.033 73.0988 17.505C72.5388 16.977 72.0908 16.345 71.7548 15.609C71.4348 14.857 71.2748 14.025 71.2748 13.113ZM74.1548 13.113C74.1548 13.561 74.2268 13.993 74.3708 14.409C74.5308 14.825 74.7548 15.193 75.0428 15.513C75.3468 15.833 75.7068 16.089 76.1228 16.281C76.5388 16.473 77.0108 16.569 77.5388 16.569C78.0668 16.569 78.5388 16.473 78.9548 16.281C79.3708 16.089 79.7228 15.833 80.0108 15.513C80.3148 15.193 80.5388 14.825 80.6828 14.409C80.8428 13.993 80.9228 13.561 80.9228 13.113C80.9228 12.665 80.8428 12.233 80.6828 11.817C80.5388 11.401 80.3148 11.033 80.0108 10.713C79.7228 10.393 79.3708 10.137 78.9548 9.94505C78.5388 9.75305 78.0668 9.65705 77.5388 9.65705C77.0108 9.65705 76.5388 9.75305 76.1228 9.94505C75.7068 10.137 75.3468 10.393 75.0428 10.713C74.7548 11.033 74.5308 11.401 74.3708 11.817C74.2268 12.233 74.1548 12.665 74.1548 13.113ZM85.9232 13.113C85.9232 12.201 86.0832 11.377 86.4032 10.641C86.7392 9.88905 87.1872 9.24905 87.7472 8.72105C88.3072 8.19305 88.9712 7.78505 89.7392 7.49705C90.5072 7.20905 91.3232 7.06505 92.1872 7.06505C93.0512 7.06505 93.8672 7.20905 94.6352 7.49705C95.4032 7.78505 96.0672 8.19305 96.6272 8.72105C97.1872 9.24905 97.6272 9.88905 97.9472 10.641C98.2832 11.377 98.4512 12.201 98.4512 13.113C98.4512 14.025 98.2832 14.857 97.9472 15.609C97.6272 16.345 97.1872 16.977 96.6272 17.505C96.0672 18.033 95.4032 18.441 94.6352 18.729C93.8672 19.017 93.0512 19.161 92.1872 19.161C91.3232 19.161 90.5072 19.017 89.7392 18.729C88.9712 18.441 88.3072 18.033 87.7472 17.505C87.1872 16.977 86.7392 16.345 86.4032 15.609C86.0832 14.857 85.9232 14.025 85.9232 13.113ZM88.8032 13.113C88.8032 13.561 88.8752 13.993 89.0192 14.409C89.1792 14.825 89.4032 15.193 89.6912 15.513C89.9952 15.833 90.3552 16.089 90.7712 16.281C91.1872 16.473 91.6592 16.569 92.1872 16.569C92.7152 16.569 93.1872 16.473 93.6032 16.281C94.0192 16.089 94.3712 15.833 94.6592 15.513C94.9632 15.193 95.1872 14.825 95.3312 14.409C95.4912 13.993 95.5712 13.561 95.5712 13.113C95.5712 12.665 95.4912 12.233 95.3312 11.817C95.1872 11.401 94.9632 11.033 94.6592 10.713C94.3712 10.393 94.0192 10.137 93.6032 9.94505C93.1872 9.75305 92.7152 9.65705 92.1872 9.65705C91.6592 9.65705 91.1872 9.75305 90.7712 9.94505C90.3552 10.137 89.9952 10.393 89.6912 10.713C89.4032 11.033 89.1792 11.401 89.0192 11.817C88.8752 12.233 88.8032 12.665 88.8032 13.113ZM101.148 0.729046H104.028V12.129L108.468 7.35305H112.164L107.22 12.585L112.476 18.873H108.66L104.076 12.993H104.028V18.873H101.148V0.729046Z" fill="black"/>
</svg>
