<svg width="59" height="14" viewBox="0 0 59 14" fill="none" xmlns="http://www.w3.org/2000/svg">
<path d="M6.58301 8.68262H2.72754L1.9209 11H0.123047L3.88281 1.04688H5.43457L9.20117 11H7.39648L6.58301 8.68262ZM3.21289 7.28809H6.09766L4.65527 3.15918L3.21289 7.28809ZM16.3242 7.37695C16.3242 8.52083 16.0645 9.43457 15.5449 10.1182C15.0254 10.7972 14.3281 11.1367 13.4531 11.1367C12.6419 11.1367 11.9925 10.8701 11.5049 10.3369V13.8438H9.84375V3.60352H11.375L11.4434 4.35547C11.931 3.76302 12.5941 3.4668 13.4326 3.4668C14.335 3.4668 15.0413 3.80404 15.5518 4.47852C16.0667 5.14844 16.3242 6.0804 16.3242 7.27441V7.37695ZM14.6699 7.2334C14.6699 6.49512 14.5218 5.90951 14.2256 5.47656C13.9339 5.04362 13.5146 4.82715 12.9678 4.82715C12.2887 4.82715 11.8011 5.10742 11.5049 5.66797V8.94922C11.8057 9.52344 12.2979 9.81055 12.9814 9.81055C13.5101 9.81055 13.9225 9.59863 14.2188 9.1748C14.5195 8.74642 14.6699 8.09928 14.6699 7.2334ZM24.2129 7.37695C24.2129 8.52083 23.9531 9.43457 23.4336 10.1182C22.9141 10.7972 22.2168 11.1367 21.3418 11.1367C20.5306 11.1367 19.8812 10.8701 19.3936 10.3369V13.8438H17.7324V3.60352H19.2637L19.332 4.35547C19.8197 3.76302 20.4827 3.4668 21.3213 3.4668C22.2236 3.4668 22.93 3.80404 23.4404 4.47852C23.9554 5.14844 24.2129 6.0804 24.2129 7.27441V7.37695ZM22.5586 7.2334C22.5586 6.49512 22.4105 5.90951 22.1143 5.47656C21.8226 5.04362 21.4033 4.82715 20.8564 4.82715C20.1774 4.82715 19.6898 5.10742 19.3936 5.66797V8.94922C19.6943 9.52344 20.1865 9.81055 20.8701 9.81055C21.3988 9.81055 21.8112 9.59863 22.1074 9.1748C22.4082 8.74642 22.5586 8.09928 22.5586 7.2334ZM29.4971 5.12109C29.2783 5.08464 29.0527 5.06641 28.8203 5.06641C28.0592 5.06641 27.5465 5.35807 27.2822 5.94141V11H25.6211V3.60352H27.207L27.248 4.43066C27.6491 3.78809 28.2051 3.4668 28.916 3.4668C29.153 3.4668 29.349 3.4987 29.5039 3.5625L29.4971 5.12109ZM29.9893 7.2334C29.9893 6.50879 30.1328 5.8571 30.4199 5.27832C30.707 4.69499 31.1104 4.24837 31.6299 3.93848C32.1494 3.62402 32.7464 3.4668 33.4209 3.4668C34.4189 3.4668 35.2279 3.78809 35.8477 4.43066C36.472 5.07324 36.8092 5.92546 36.8594 6.9873L36.8662 7.37695C36.8662 8.10612 36.7249 8.75781 36.4424 9.33203C36.1644 9.90625 35.7633 10.3506 35.2393 10.665C34.7197 10.9795 34.1182 11.1367 33.4346 11.1367C32.391 11.1367 31.5547 10.7904 30.9258 10.0977C30.3014 9.40039 29.9893 8.47298 29.9893 7.31543V7.2334ZM31.6504 7.37695C31.6504 8.13802 31.8076 8.73503 32.1221 9.16797C32.4365 9.59635 32.874 9.81055 33.4346 9.81055C33.9951 9.81055 34.4303 9.5918 34.7402 9.1543C35.0547 8.7168 35.2119 8.0765 35.2119 7.2334C35.2119 6.486 35.0501 5.89355 34.7266 5.45605C34.4076 5.01855 33.9723 4.7998 33.4209 4.7998C32.8786 4.7998 32.4479 5.01628 32.1289 5.44922C31.8099 5.8776 31.6504 6.52018 31.6504 7.37695ZM40.7695 8.89453L42.335 3.60352H44.0508L41.4873 11H40.0449L37.4609 3.60352H39.1836L40.7695 8.89453ZM48.2549 11.1367C47.2021 11.1367 46.3477 10.8063 45.6914 10.1455C45.0397 9.48014 44.7139 8.59603 44.7139 7.49316V7.28809C44.7139 6.5498 44.8551 5.89128 45.1377 5.3125C45.4248 4.72917 45.8258 4.27572 46.3408 3.95215C46.8558 3.62858 47.43 3.4668 48.0635 3.4668C49.0706 3.4668 49.8477 3.78809 50.3945 4.43066C50.946 5.07324 51.2217 5.98242 51.2217 7.1582V7.82812H46.3887C46.4388 8.4388 46.6416 8.92188 46.9971 9.27734C47.3571 9.63281 47.8083 9.81055 48.3506 9.81055C49.1117 9.81055 49.7314 9.50293 50.21 8.8877L51.1055 9.74219C50.8092 10.1842 50.4128 10.5283 49.916 10.7744C49.4238 11.016 48.8701 11.1367 48.2549 11.1367ZM48.0566 4.7998C47.6009 4.7998 47.2318 4.95931 46.9492 5.27832C46.6712 5.59733 46.4935 6.04167 46.416 6.61133H49.5811V6.48828C49.5446 5.93229 49.3965 5.51302 49.1367 5.23047C48.877 4.94336 48.5169 4.7998 48.0566 4.7998ZM52.2061 7.24707C52.2061 6.10775 52.4704 5.19401 52.999 4.50586C53.5277 3.81315 54.2363 3.4668 55.125 3.4668C55.9089 3.4668 56.5423 3.74023 57.0254 4.28711V0.5H58.6865V11H57.1826L57.1006 10.2344C56.6038 10.8359 55.9408 11.1367 55.1113 11.1367C54.2454 11.1367 53.5436 10.7881 53.0059 10.0908C52.4727 9.39355 52.2061 8.44564 52.2061 7.24707ZM53.8672 7.39062C53.8672 8.14258 54.0107 8.73047 54.2979 9.1543C54.5895 9.57357 55.002 9.7832 55.5352 9.7832C56.2142 9.7832 56.7109 9.48014 57.0254 8.87402V5.71582C56.7201 5.12337 56.2279 4.82715 55.5488 4.82715C55.0111 4.82715 54.5964 5.04134 54.3047 5.46973C54.013 5.89355 53.8672 6.53385 53.8672 7.39062Z" fill="#0ACF83"/>
</svg>
