<svg width="218" height="50" viewBox="0 0 218 50" fill="none" xmlns="http://www.w3.org/2000/svg">
<path d="M18.544 18.256H20.506L25.996 31H23.404L22.216 28.084H16.69L15.538 31H13L18.544 18.256ZM21.424 26.14L19.462 20.956L17.464 26.14H21.424ZM26.2062 24.196V22.36H27.9882V19.858H30.1482V22.36H32.5242V24.196H30.1482V27.976C30.1482 28.408 30.2262 28.75 30.3822 29.002C30.5502 29.254 30.8742 29.38 31.3542 29.38C31.5462 29.38 31.7562 29.362 31.9842 29.326C32.2122 29.278 32.3922 29.206 32.5242 29.11V30.928C32.2962 31.036 32.0142 31.108 31.6782 31.144C31.3542 31.192 31.0662 31.216 30.8142 31.216C30.2382 31.216 29.7642 31.15 29.3922 31.018C29.0322 30.898 28.7442 30.712 28.5282 30.46C28.3242 30.196 28.1802 29.872 28.0962 29.488C28.0242 29.104 27.9882 28.66 27.9882 28.156V24.196H26.2062ZM33.2199 24.196V22.36H35.0019V19.858H37.1619V22.36H39.5379V24.196H37.1619V27.976C37.1619 28.408 37.2399 28.75 37.3959 29.002C37.5639 29.254 37.8879 29.38 38.3679 29.38C38.5599 29.38 38.7699 29.362 38.9979 29.326C39.2259 29.278 39.4059 29.206 39.5379 29.11V30.928C39.3099 31.036 39.0279 31.108 38.6919 31.144C38.3679 31.192 38.0799 31.216 37.8279 31.216C37.2519 31.216 36.7779 31.15 36.4059 31.018C36.0459 30.898 35.7579 30.712 35.5419 30.46C35.3379 30.196 35.1939 29.872 35.1099 29.488C35.0379 29.104 35.0019 28.66 35.0019 28.156V24.196H33.2199ZM46.624 29.812H46.57C46.258 30.304 45.862 30.664 45.382 30.892C44.902 31.108 44.374 31.216 43.798 31.216C43.402 31.216 43.012 31.162 42.628 31.054C42.256 30.946 41.92 30.784 41.62 30.568C41.332 30.352 41.098 30.082 40.918 29.758C40.738 29.434 40.648 29.056 40.648 28.624C40.648 28.156 40.732 27.76 40.9 27.436C41.068 27.1 41.29 26.824 41.566 26.608C41.854 26.38 42.184 26.2 42.556 26.068C42.928 25.936 43.312 25.84 43.708 25.78C44.116 25.708 44.524 25.666 44.932 25.654C45.34 25.63 45.724 25.618 46.084 25.618H46.624V25.384C46.624 24.844 46.438 24.442 46.066 24.178C45.694 23.902 45.22 23.764 44.644 23.764C44.188 23.764 43.762 23.848 43.366 24.016C42.97 24.172 42.628 24.388 42.34 24.664L41.206 23.53C41.686 23.038 42.244 22.684 42.88 22.468C43.528 22.252 44.194 22.144 44.878 22.144C45.49 22.144 46.006 22.216 46.426 22.36C46.846 22.492 47.194 22.666 47.47 22.882C47.746 23.098 47.956 23.35 48.1 23.638C48.256 23.914 48.364 24.196 48.424 24.484C48.496 24.772 48.538 25.054 48.55 25.33C48.562 25.594 48.568 25.828 48.568 26.032V31H46.624V29.812ZM46.498 27.13H46.048C45.748 27.13 45.412 27.142 45.04 27.166C44.668 27.19 44.314 27.25 43.978 27.346C43.654 27.43 43.378 27.562 43.15 27.742C42.922 27.91 42.808 28.15 42.808 28.462C42.808 28.666 42.85 28.84 42.934 28.984C43.03 29.116 43.15 29.23 43.294 29.326C43.438 29.422 43.6 29.494 43.78 29.542C43.96 29.578 44.14 29.596 44.32 29.596C45.064 29.596 45.61 29.422 45.958 29.074C46.318 28.714 46.498 28.228 46.498 27.616V27.13ZM56.796 24.952C56.544 24.688 56.28 24.478 56.004 24.322C55.728 24.166 55.446 24.088 55.158 24.088C54.762 24.088 54.408 24.16 54.096 24.304C53.784 24.448 53.514 24.64 53.286 24.88C53.07 25.12 52.902 25.396 52.782 25.708C52.674 26.02 52.62 26.344 52.62 26.68C52.62 27.016 52.674 27.34 52.782 27.652C52.902 27.964 53.07 28.24 53.286 28.48C53.514 28.72 53.784 28.912 54.096 29.056C54.408 29.2 54.762 29.272 55.158 29.272C55.494 29.272 55.806 29.206 56.094 29.074C56.382 28.93 56.628 28.726 56.832 28.462L58.272 30.01C58.056 30.226 57.804 30.412 57.516 30.568C57.24 30.724 56.958 30.85 56.67 30.946C56.382 31.042 56.106 31.108 55.842 31.144C55.578 31.192 55.35 31.216 55.158 31.216C54.51 31.216 53.898 31.108 53.322 30.892C52.746 30.676 52.248 30.37 51.828 29.974C51.408 29.578 51.072 29.104 50.82 28.552C50.58 27.988 50.46 27.364 50.46 26.68C50.46 25.996 50.58 25.378 50.82 24.826C51.072 24.262 51.408 23.782 51.828 23.386C52.248 22.99 52.746 22.684 53.322 22.468C53.898 22.252 54.51 22.144 55.158 22.144C55.71 22.144 56.262 22.252 56.814 22.468C57.378 22.672 57.87 23.002 58.29 23.458L56.796 24.952ZM61.7356 23.566H61.7716C61.9396 23.206 62.2336 22.882 62.6536 22.594C63.0856 22.294 63.6376 22.144 64.3096 22.144C64.8856 22.144 65.3716 22.24 65.7676 22.432C66.1756 22.624 66.5056 22.876 66.7576 23.188C67.0096 23.5 67.1896 23.86 67.2976 24.268C67.4056 24.676 67.4596 25.102 67.4596 25.546V31H65.2996V26.626C65.2996 26.386 65.2876 26.122 65.2636 25.834C65.2396 25.534 65.1736 25.258 65.0656 25.006C64.9696 24.742 64.8136 24.526 64.5976 24.358C64.3816 24.178 64.0876 24.088 63.7156 24.088C63.3556 24.088 63.0496 24.148 62.7976 24.268C62.5576 24.388 62.3536 24.55 62.1856 24.754C62.0296 24.958 61.9156 25.192 61.8436 25.456C61.7716 25.72 61.7356 25.996 61.7356 26.284V31H59.5756V17.392H61.7356V23.566ZM71.6395 27.436C71.7115 28.084 71.9635 28.588 72.3955 28.948C72.8275 29.308 73.3495 29.488 73.9615 29.488C74.5015 29.488 74.9515 29.38 75.3115 29.164C75.6835 28.936 76.0075 28.654 76.2835 28.318L77.8315 29.488C77.3275 30.112 76.7635 30.556 76.1395 30.82C75.5155 31.084 74.8615 31.216 74.1775 31.216C73.5295 31.216 72.9175 31.108 72.3415 30.892C71.7655 30.676 71.2675 30.37 70.8475 29.974C70.4275 29.578 70.0915 29.104 69.8395 28.552C69.5995 27.988 69.4795 27.364 69.4795 26.68C69.4795 25.996 69.5995 25.378 69.8395 24.826C70.0915 24.262 70.4275 23.782 70.8475 23.386C71.2675 22.99 71.7655 22.684 72.3415 22.468C72.9175 22.252 73.5295 22.144 74.1775 22.144C74.7775 22.144 75.3235 22.252 75.8155 22.468C76.3195 22.672 76.7455 22.972 77.0935 23.368C77.4535 23.764 77.7295 24.256 77.9215 24.844C78.1255 25.42 78.2275 26.086 78.2275 26.842V27.436H71.6395ZM76.0675 25.816C76.0555 25.18 75.8575 24.682 75.4735 24.322C75.0895 23.95 74.5555 23.764 73.8715 23.764C73.2235 23.764 72.7075 23.95 72.3235 24.322C71.9515 24.694 71.7235 25.192 71.6395 25.816H76.0675ZM85.7716 18.256H90.7396C91.2196 18.256 91.6936 18.316 92.1616 18.436C92.6296 18.544 93.0436 18.73 93.4036 18.994C93.7756 19.246 94.0756 19.576 94.3036 19.984C94.5316 20.392 94.6456 20.884 94.6456 21.46C94.6456 22.18 94.4416 22.774 94.0336 23.242C93.6256 23.71 93.0916 24.046 92.4316 24.25V24.286C92.8276 24.334 93.1936 24.448 93.5296 24.628C93.8776 24.796 94.1716 25.018 94.4116 25.294C94.6516 25.558 94.8376 25.87 94.9696 26.23C95.1136 26.578 95.1856 26.956 95.1856 27.364C95.1856 28.06 95.0476 28.642 94.7716 29.11C94.4956 29.566 94.1296 29.938 93.6736 30.226C93.2296 30.502 92.7136 30.7 92.1256 30.82C91.5496 30.94 90.9616 31 90.3616 31H85.7716V18.256ZM88.0396 23.44H90.1096C90.8656 23.44 91.4296 23.296 91.8016 23.008C92.1856 22.708 92.3776 22.318 92.3776 21.838C92.3776 21.286 92.1796 20.878 91.7836 20.614C91.3996 20.338 90.7756 20.2 89.9116 20.2H88.0396V23.44ZM88.0396 29.056H90.1276C90.4156 29.056 90.7216 29.038 91.0456 29.002C91.3816 28.966 91.6876 28.882 91.9636 28.75C92.2396 28.618 92.4676 28.432 92.6476 28.192C92.8276 27.94 92.9176 27.604 92.9176 27.184C92.9176 26.512 92.6956 26.044 92.2516 25.78C91.8196 25.516 91.1416 25.384 90.2176 25.384H88.0396V29.056ZM96.8135 26.68C96.8135 25.996 96.9335 25.378 97.1735 24.826C97.4255 24.262 97.7615 23.782 98.1815 23.386C98.6015 22.99 99.0995 22.684 99.6755 22.468C100.251 22.252 100.863 22.144 101.511 22.144C102.159 22.144 102.771 22.252 103.347 22.468C103.923 22.684 104.421 22.99 104.841 23.386C105.261 23.782 105.591 24.262 105.831 24.826C106.083 25.378 106.209 25.996 106.209 26.68C106.209 27.364 106.083 27.988 105.831 28.552C105.591 29.104 105.261 29.578 104.841 29.974C104.421 30.37 103.923 30.676 103.347 30.892C102.771 31.108 102.159 31.216 101.511 31.216C100.863 31.216 100.251 31.108 99.6755 30.892C99.0995 30.676 98.6015 30.37 98.1815 29.974C97.7615 29.578 97.4255 29.104 97.1735 28.552C96.9335 27.988 96.8135 27.364 96.8135 26.68ZM98.9735 26.68C98.9735 27.016 99.0275 27.34 99.1355 27.652C99.2555 27.964 99.4235 28.24 99.6395 28.48C99.8675 28.72 100.137 28.912 100.449 29.056C100.761 29.2 101.115 29.272 101.511 29.272C101.907 29.272 102.261 29.2 102.573 29.056C102.885 28.912 103.149 28.72 103.365 28.48C103.593 28.24 103.761 27.964 103.869 27.652C103.989 27.34 104.049 27.016 104.049 26.68C104.049 26.344 103.989 26.02 103.869 25.708C103.761 25.396 103.593 25.12 103.365 24.88C103.149 24.64 102.885 24.448 102.573 24.304C102.261 24.16 101.907 24.088 101.511 24.088C101.115 24.088 100.761 24.16 100.449 24.304C100.137 24.448 99.8675 24.64 99.6395 24.88C99.4235 25.12 99.2555 25.396 99.1355 25.708C99.0275 26.02 98.9735 26.344 98.9735 26.68ZM107.8 26.68C107.8 25.996 107.92 25.378 108.16 24.826C108.412 24.262 108.748 23.782 109.168 23.386C109.588 22.99 110.086 22.684 110.662 22.468C111.238 22.252 111.85 22.144 112.498 22.144C113.146 22.144 113.758 22.252 114.334 22.468C114.91 22.684 115.408 22.99 115.828 23.386C116.248 23.782 116.578 24.262 116.818 24.826C117.07 25.378 117.196 25.996 117.196 26.68C117.196 27.364 117.07 27.988 116.818 28.552C116.578 29.104 116.248 29.578 115.828 29.974C115.408 30.37 114.91 30.676 114.334 30.892C113.758 31.108 113.146 31.216 112.498 31.216C111.85 31.216 111.238 31.108 110.662 30.892C110.086 30.676 109.588 30.37 109.168 29.974C108.748 29.578 108.412 29.104 108.16 28.552C107.92 27.988 107.8 27.364 107.8 26.68ZM109.96 26.68C109.96 27.016 110.014 27.34 110.122 27.652C110.242 27.964 110.41 28.24 110.626 28.48C110.854 28.72 111.124 28.912 111.436 29.056C111.748 29.2 112.102 29.272 112.498 29.272C112.894 29.272 113.248 29.2 113.56 29.056C113.872 28.912 114.136 28.72 114.352 28.48C114.58 28.24 114.748 27.964 114.856 27.652C114.976 27.34 115.036 27.016 115.036 26.68C115.036 26.344 114.976 26.02 114.856 25.708C114.748 25.396 114.58 25.12 114.352 24.88C114.136 24.64 113.872 24.448 113.56 24.304C113.248 24.16 112.894 24.088 112.498 24.088C112.102 24.088 111.748 24.16 111.436 24.304C111.124 24.448 110.854 24.64 110.626 24.88C110.41 25.12 110.242 25.396 110.122 25.708C110.014 26.02 109.96 26.344 109.96 26.68ZM119.218 17.392H121.378V25.942L124.708 22.36H127.48L123.772 26.284L127.714 31H124.852L121.414 26.59H121.378V31H119.218V17.392ZM134.41 18.256H142.636V20.308H136.678V23.656H142.294V25.708H136.678V31H134.41V18.256ZM144.584 22.36H146.744V31H144.584V22.36ZM144.278 19.426C144.278 19.078 144.404 18.778 144.656 18.526C144.92 18.262 145.25 18.13 145.646 18.13C146.042 18.13 146.372 18.256 146.636 18.508C146.912 18.748 147.05 19.054 147.05 19.426C147.05 19.798 146.912 20.11 146.636 20.362C146.372 20.602 146.042 20.722 145.646 20.722C145.25 20.722 144.92 20.596 144.656 20.344C144.404 20.08 144.278 19.774 144.278 19.426ZM149.26 17.392H151.42V31H149.26V17.392ZM155.628 27.436C155.7 28.084 155.952 28.588 156.384 28.948C156.816 29.308 157.338 29.488 157.95 29.488C158.49 29.488 158.94 29.38 159.3 29.164C159.672 28.936 159.996 28.654 160.272 28.318L161.82 29.488C161.316 30.112 160.752 30.556 160.128 30.82C159.504 31.084 158.85 31.216 158.166 31.216C157.518 31.216 156.906 31.108 156.33 30.892C155.754 30.676 155.256 30.37 154.836 29.974C154.416 29.578 154.08 29.104 153.828 28.552C153.588 27.988 153.468 27.364 153.468 26.68C153.468 25.996 153.588 25.378 153.828 24.826C154.08 24.262 154.416 23.782 154.836 23.386C155.256 22.99 155.754 22.684 156.33 22.468C156.906 22.252 157.518 22.144 158.166 22.144C158.766 22.144 159.312 22.252 159.804 22.468C160.308 22.672 160.734 22.972 161.082 23.368C161.442 23.764 161.718 24.256 161.91 24.844C162.114 25.42 162.216 26.086 162.216 26.842V27.436H155.628ZM160.056 25.816C160.044 25.18 159.846 24.682 159.462 24.322C159.078 23.95 158.544 23.764 157.86 23.764C157.212 23.764 156.696 23.95 156.312 24.322C155.94 24.694 155.712 25.192 155.628 25.816H160.056Z" fill="#333333"/>
<rect x="1" y="1" width="216" height="48" rx="4" fill="#D2D2D2" fill-opacity="0.25" stroke="#BCBCBC" stroke-width="2"/>
<path d="M187.375 40C182.205 40 178 35.795 178 30.625V17.5C178 16.8088 178.56 16.2501 179.25 16.2501C179.94 16.2501 180.5 16.8088 180.5 17.5V30.625C180.5 34.4151 183.584 37.4999 187.375 37.4999C191.166 37.4999 194.25 34.4151 194.25 30.625V16.8749C194.25 14.4625 192.287 12.5001 189.875 12.5001C187.462 12.5001 185.5 14.4625 185.5 16.8749V29.3751C185.5 30.4087 186.341 31.2501 187.375 31.2501C188.409 31.2501 189.25 30.4087 189.25 29.3751V17.5C189.25 16.8088 189.81 16.2501 190.5 16.2501C191.19 16.2501 191.75 16.8088 191.75 17.5V29.3751C191.75 31.7875 189.787 33.7499 187.375 33.7499C184.963 33.7499 183 31.7875 183 29.3751V16.8749C183 13.0851 186.084 10 189.875 10C193.666 10 196.75 13.0851 196.75 16.8749V30.625C196.75 35.795 192.545 40 187.375 40Z" fill="#5A5A5A"/>
</svg>
