<svg width="42" height="12" viewBox="0 0 42 12" fill="none" xmlns="http://www.w3.org/2000/svg">
<path d="M8.60645 7.75977C8.50618 8.82161 8.11426 9.65104 7.43066 10.248C6.74707 10.8405 5.83789 11.1367 4.70312 11.1367C3.91016 11.1367 3.21061 10.9499 2.60449 10.5762C2.00293 10.1979 1.53809 9.66243 1.20996 8.96973C0.881836 8.27702 0.710938 7.47266 0.697266 6.55664V5.62695C0.697266 4.68815 0.863607 3.861 1.19629 3.14551C1.52897 2.43001 2.00521 1.87858 2.625 1.49121C3.24935 1.10384 3.9694 0.910156 4.78516 0.910156C5.88346 0.910156 6.76758 1.20866 7.4375 1.80566C8.10742 2.40267 8.49707 3.24577 8.60645 4.33496H6.88379C6.80176 3.61947 6.59212 3.10449 6.25488 2.79004C5.9222 2.47103 5.43229 2.31152 4.78516 2.31152C4.0332 2.31152 3.45443 2.58724 3.04883 3.13867C2.64779 3.68555 2.44271 4.48991 2.43359 5.55176V6.43359C2.43359 7.50911 2.625 8.32943 3.00781 8.89453C3.39518 9.45964 3.96029 9.74219 4.70312 9.74219C5.38216 9.74219 5.89258 9.58952 6.23438 9.28418C6.57617 8.97884 6.79264 8.4707 6.88379 7.75977H8.60645ZM14.417 11C14.3441 10.8587 14.2803 10.6286 14.2256 10.3096C13.6969 10.861 13.0498 11.1367 12.2842 11.1367C11.5413 11.1367 10.9352 10.9248 10.4658 10.501C9.99642 10.0771 9.76172 9.55306 9.76172 8.92871C9.76172 8.1403 10.0534 7.53646 10.6367 7.11719C11.2246 6.69336 12.0632 6.48145 13.1523 6.48145H14.1709V5.99609C14.1709 5.61328 14.0638 5.30794 13.8496 5.08008C13.6354 4.84766 13.3096 4.73145 12.8721 4.73145C12.4938 4.73145 12.1839 4.82715 11.9424 5.01855C11.7008 5.2054 11.5801 5.44466 11.5801 5.73633H9.91895C9.91895 5.33073 10.0534 4.95247 10.3223 4.60156C10.5911 4.24609 10.9557 3.9681 11.416 3.76758C11.8809 3.56706 12.3981 3.4668 12.9678 3.4668C13.8337 3.4668 14.5241 3.68555 15.0391 4.12305C15.554 4.55599 15.8184 5.16667 15.832 5.95508V9.29102C15.832 9.95638 15.9255 10.4873 16.1123 10.8838V11H14.417ZM12.5918 9.80371C12.9199 9.80371 13.2275 9.72396 13.5146 9.56445C13.8063 9.40495 14.0251 9.19076 14.1709 8.92188V7.52734H13.2754C12.6602 7.52734 12.1976 7.63444 11.8877 7.84863C11.5778 8.06283 11.4229 8.36589 11.4229 8.75781C11.4229 9.07682 11.5277 9.33203 11.7373 9.52344C11.9515 9.71029 12.2363 9.80371 12.5918 9.80371ZM19.1133 3.60352L19.1611 4.45801C19.708 3.7972 20.4258 3.4668 21.3145 3.4668C22.8548 3.4668 23.6387 4.34863 23.666 6.1123V11H22.0049V6.20801C22.0049 5.73861 21.9023 5.39225 21.6973 5.16895C21.4967 4.94108 21.1663 4.82715 20.7061 4.82715C20.0361 4.82715 19.5371 5.13021 19.209 5.73633V11H17.5479V3.60352H19.1133ZM28.4033 9.81055C28.818 9.81055 29.1621 9.68978 29.4355 9.44824C29.709 9.20671 29.8548 8.9082 29.873 8.55273H31.4385C31.4202 9.01302 31.2767 9.44368 31.0078 9.84473C30.7389 10.2412 30.3743 10.5557 29.9141 10.7881C29.4538 11.0205 28.957 11.1367 28.4238 11.1367C27.3893 11.1367 26.569 10.8018 25.9629 10.1318C25.3568 9.46191 25.0537 8.53678 25.0537 7.35645V7.18555C25.0537 6.0599 25.3545 5.15983 25.9561 4.48535C26.5576 3.80632 27.3779 3.4668 28.417 3.4668C29.2965 3.4668 30.012 3.72428 30.5635 4.23926C31.1195 4.74967 31.4111 5.42188 31.4385 6.25586H29.873C29.8548 5.83203 29.709 5.4834 29.4355 5.20996C29.1667 4.93652 28.8226 4.7998 28.4033 4.7998C27.8656 4.7998 27.4508 4.99577 27.1592 5.3877C26.8675 5.77507 26.7194 6.36523 26.7148 7.1582V7.4248C26.7148 8.22689 26.8584 8.82617 27.1455 9.22266C27.4372 9.61458 27.8564 9.81055 28.4033 9.81055ZM35.9502 11.1367C34.8975 11.1367 34.043 10.8063 33.3867 10.1455C32.735 9.48014 32.4092 8.59603 32.4092 7.49316V7.28809C32.4092 6.5498 32.5505 5.89128 32.833 5.3125C33.1201 4.72917 33.5212 4.27572 34.0361 3.95215C34.5511 3.62858 35.1253 3.4668 35.7588 3.4668C36.766 3.4668 37.543 3.78809 38.0898 4.43066C38.6413 5.07324 38.917 5.98242 38.917 7.1582V7.82812H34.084C34.1341 8.4388 34.3369 8.92188 34.6924 9.27734C35.0524 9.63281 35.5036 9.81055 36.0459 9.81055C36.807 9.81055 37.4268 9.50293 37.9053 8.8877L38.8008 9.74219C38.5046 10.1842 38.1081 10.5283 37.6113 10.7744C37.1191 11.016 36.5654 11.1367 35.9502 11.1367ZM35.752 4.7998C35.2962 4.7998 34.9271 4.95931 34.6445 5.27832C34.3665 5.59733 34.1888 6.04167 34.1113 6.61133H37.2764V6.48828C37.2399 5.93229 37.0918 5.51302 36.832 5.23047C36.5723 4.94336 36.2122 4.7998 35.752 4.7998ZM41.9795 11H40.3184V0.5H41.9795V11Z" fill="#FF0000"/>
</svg>
