<svg width="80" height="80" viewBox="0 0 80 80" fill="none" xmlns="http://www.w3.org/2000/svg">
<path d="M25.0001 61.8692V76.25C25.0001 76.5815 25.1318 76.8995 25.3662 77.1339C25.6006 77.3683 25.9185 77.5 26.2501 77.5H68.7501C69.0816 77.5 69.3995 77.3683 69.6339 77.1339C69.8684 76.8995 70.0001 76.5815 70.0001 76.25V46.25C69.9992 45.2243 69.7467 44.2144 69.2648 43.3089L60.0001 25.9375V3.75C60.0001 3.41848 59.8684 3.10054 59.6339 2.86612C59.3995 2.6317 59.0816 2.5 58.7501 2.5H26.2501C25.9185 2.5 25.6006 2.6317 25.3662 2.86612C25.1318 3.10054 25.0001 3.41848 25.0001 3.75V8.13625L10.8766 12.557C10.72 12.6061 10.5745 12.6855 10.4485 12.7907C10.3225 12.896 10.2185 13.025 10.1424 13.1705C10.0663 13.3159 10.0196 13.475 10.005 13.6385C9.99034 13.802 10.008 13.9668 10.0571 14.1234L25.0001 61.8692ZM23.4071 19.1142L22.6601 16.7273L25.0001 15.9948V36.757L20.2023 21.4273L22.5877 20.6805C22.9041 20.5814 23.1681 20.3607 23.3218 20.067C23.4754 19.7733 23.5061 19.4306 23.4071 19.1142ZM67.5001 46.25V75H60.0001C57.0584 74.9966 54.2348 73.8425 52.133 71.7844C50.0311 69.7263 48.8179 66.9277 48.7526 63.9867C48.8153 63.6615 48.7463 63.3246 48.5608 63.0502L40.4532 51.0494C40.1726 50.6415 39.9755 50.182 39.8733 49.6976C39.7712 49.2131 39.766 48.7132 39.858 48.2267C39.95 47.7403 40.1375 47.2768 40.4096 46.8632C40.6816 46.4495 41.0329 46.0938 41.4432 45.8166C41.8534 45.5394 42.3145 45.3462 42.7998 45.2482C43.2851 45.1501 43.785 45.1491 44.2707 45.2452C44.7564 45.3413 45.2183 45.5327 45.6296 45.8082C46.041 46.0838 46.3937 46.4381 46.6674 46.8506C46.6748 46.8614 46.683 46.8722 46.6901 46.8828L53.9877 56.9822C54.1035 57.1424 54.2556 57.2729 54.4316 57.3629C54.6076 57.4529 54.8024 57.4999 55.0001 57.5H58.7501C59.0816 57.5 59.3995 57.3683 59.6339 57.1339C59.8684 56.8995 60.0001 56.5815 60.0001 56.25V31.25L67.059 44.4853C67.348 45.0287 67.4995 45.6346 67.5001 46.25ZM35.0001 66.25H32.5001V13.75H35.0001C35.3316 13.75 35.6495 13.6183 35.884 13.3839C36.1184 13.1495 36.2501 12.8315 36.2501 12.5V10H48.7501V12.5C48.7501 12.8315 48.8818 13.1495 49.1162 13.3839C49.3506 13.6183 49.6685 13.75 50.0001 13.75H52.5001V50.6562L48.7266 45.4339C48.5792 45.2185 48.4186 45.0125 48.2457 44.817C49.2105 43.6658 49.8073 42.2512 49.9587 40.7568C50.1102 39.2624 49.8093 37.7569 49.0951 36.4355C48.3809 35.114 47.2863 34.0375 45.9531 33.3455C44.6199 32.6535 43.1096 32.3778 41.6179 32.5542C40.1262 32.7306 38.7219 33.351 37.5869 34.3349C36.4519 35.3187 35.6385 36.6208 35.2523 38.0724C34.866 39.524 34.9245 41.0581 35.4204 42.476C35.9162 43.8939 36.8265 45.1302 38.0332 46.0247C37.5052 47.027 37.2587 48.1537 37.3199 49.285C37.3811 50.4162 37.7477 51.5097 38.3808 52.4492L46.2544 64.1023C46.305 66.1562 46.8183 68.1721 47.7562 70H36.2501V67.5C36.2501 67.1685 36.1184 66.8505 35.884 66.6161C35.6495 66.3817 35.3316 66.25 35.0001 66.25ZM40.0605 43.7712C39.9112 43.8722 39.768 43.9798 39.6293 44.0917C38.8001 43.5101 38.167 42.6904 37.814 41.741C37.461 40.7917 37.4046 39.7575 37.6523 38.7754C37.9 37.7933 38.4401 36.9096 39.2012 36.2413C39.9622 35.573 40.9083 35.1515 41.9142 35.0327C42.92 34.914 43.9382 35.1035 44.834 35.5762C45.7298 36.0489 46.4609 36.7825 46.9305 37.6799C47.4001 38.5773 47.5861 39.5962 47.4639 40.6017C47.3417 41.6071 46.917 42.5517 46.246 43.3105C45.264 42.8425 44.1769 42.6389 43.0921 42.7197C42.0073 42.8005 40.9624 43.163 40.0605 43.7712ZM27.5001 5H57.5001V55H55.639L55.0001 54.1158V12.5C55.0001 12.1685 54.8684 11.8505 54.6339 11.6161C54.3995 11.3817 54.0816 11.25 53.7501 11.25H51.2501V8.75C51.2501 8.41848 51.1184 8.10054 50.8839 7.86612C50.6495 7.6317 50.3316 7.5 50.0001 7.5H35.0001C34.6685 7.5 34.3506 7.6317 34.1162 7.86612C33.8818 8.10054 33.7501 8.41848 33.7501 8.75V11.25H31.2501C30.9185 11.25 30.6006 11.3817 30.3662 11.6161C30.1318 11.8505 30.0001 12.1685 30.0001 12.5V67.5C30.0001 67.8315 30.1318 68.1495 30.3662 68.3839C30.6006 68.6183 30.9185 68.75 31.2501 68.75H33.7501V71.25C33.7501 71.5815 33.8818 71.8995 34.1162 72.1339C34.3506 72.3683 34.6685 72.5 35.0001 72.5H49.4046C50.1907 73.4499 51.1 74.2906 52.1085 75H27.5001V5ZM25.0001 10.7558V13.375L20.7204 14.7147C20.404 14.8137 20.1399 15.0344 19.9862 15.3281C19.8326 15.6218 19.8018 15.9646 19.9008 16.2809L20.6479 18.668L18.2624 19.4147C18.1058 19.4637 17.9603 19.5432 17.8343 19.6484C17.7084 19.7537 17.6044 19.8827 17.5283 20.0282C17.4522 20.1736 17.4055 20.3327 17.3909 20.4962C17.3763 20.6597 17.394 20.8244 17.443 20.9811L25.0001 45.1269V53.4991L12.8163 14.5695L25.0001 10.7558Z" fill="black" fill-opacity="0.3"/>
</svg>
