<svg width="260" height="40" viewBox="0 0 260 40" fill="none" xmlns="http://www.w3.org/2000/svg">
<rect width="260" height="40" rx="5" fill="#393939"/>
<path d="M115.442 26V13.112H119.978C120.59 13.112 121.16 13.214 121.688 13.418C122.228 13.61 122.696 13.886 123.092 14.246C123.488 14.606 123.8 15.038 124.028 15.542C124.256 16.034 124.37 16.58 124.37 17.18C124.37 17.792 124.256 18.35 124.028 18.854C123.8 19.346 123.488 19.772 123.092 20.132C122.696 20.492 122.228 20.774 121.688 20.978C121.16 21.17 120.59 21.266 119.978 21.266H117.872V26H115.442ZM120.014 18.962C120.65 18.962 121.13 18.782 121.454 18.422C121.778 18.062 121.94 17.648 121.94 17.18C121.94 16.952 121.898 16.73 121.814 16.514C121.742 16.298 121.622 16.112 121.454 15.956C121.298 15.788 121.1 15.656 120.86 15.56C120.62 15.464 120.338 15.416 120.014 15.416H117.872V18.962H120.014ZM130.891 25.064H130.747C130.471 25.4 130.135 25.688 129.739 25.928C129.355 26.168 128.857 26.288 128.245 26.288C127.789 26.288 127.357 26.21 126.949 26.054C126.553 25.91 126.205 25.706 125.905 25.442C125.605 25.178 125.371 24.86 125.203 24.488C125.035 24.116 124.951 23.708 124.951 23.264C124.951 22.808 125.041 22.4 125.221 22.04C125.401 21.668 125.653 21.35 125.977 21.086C126.301 20.822 126.679 20.624 127.111 20.492C127.555 20.348 128.035 20.276 128.551 20.276C129.127 20.276 129.601 20.324 129.973 20.42C130.345 20.504 130.651 20.594 130.891 20.69V20.42C130.891 19.952 130.705 19.568 130.333 19.268C129.961 18.956 129.499 18.8 128.947 18.8C128.131 18.8 127.441 19.142 126.877 19.826L125.167 18.656C126.103 17.48 127.381 16.892 129.001 16.892C130.369 16.892 131.413 17.216 132.133 17.864C132.853 18.5 133.213 19.448 133.213 20.708V26H130.891V25.064ZM130.891 22.418C130.615 22.286 130.327 22.184 130.027 22.112C129.739 22.028 129.421 21.986 129.073 21.986C128.509 21.986 128.071 22.112 127.759 22.364C127.459 22.604 127.309 22.904 127.309 23.264C127.309 23.624 127.453 23.912 127.741 24.128C128.041 24.344 128.383 24.452 128.767 24.452C129.079 24.452 129.367 24.398 129.631 24.29C129.895 24.17 130.117 24.02 130.297 23.84C130.489 23.648 130.633 23.432 130.729 23.192C130.837 22.94 130.891 22.682 130.891 22.418ZM137.684 25.568L133.976 17.18H136.658L138.89 22.526H139.016L141.158 17.18H143.786L138.26 29.888H135.722L137.684 25.568Z" fill="white"/>
</svg>
