<svg width="144" height="50" viewBox="0 0 144 50" fill="none" xmlns="http://www.w3.org/2000/svg">
<rect width="144" height="50" rx="1" fill="#393939"/>
<path d="M30.422 18.256H35.444C36.284 18.256 37.094 18.388 37.874 18.652C38.654 18.904 39.344 19.294 39.944 19.822C40.544 20.35 41.024 21.016 41.384 21.82C41.744 22.612 41.924 23.548 41.924 24.628C41.924 25.72 41.714 26.668 41.294 27.472C40.886 28.264 40.352 28.924 39.692 29.452C39.044 29.968 38.318 30.358 37.514 30.622C36.722 30.874 35.942 31 35.174 31H30.422V18.256ZM34.382 28.948C35.09 28.948 35.756 28.87 36.38 28.714C37.016 28.546 37.568 28.294 38.036 27.958C38.504 27.61 38.87 27.166 39.134 26.626C39.41 26.074 39.548 25.408 39.548 24.628C39.548 23.86 39.428 23.2 39.188 22.648C38.948 22.096 38.612 21.652 38.18 21.316C37.76 20.968 37.256 20.716 36.668 20.56C36.092 20.392 35.456 20.308 34.76 20.308H32.69V28.948H34.382ZM43.4502 26.68C43.4502 25.996 43.5702 25.378 43.8102 24.826C44.0622 24.262 44.3982 23.782 44.8182 23.386C45.2382 22.99 45.7362 22.684 46.3122 22.468C46.8882 22.252 47.5002 22.144 48.1482 22.144C48.7962 22.144 49.4082 22.252 49.9842 22.468C50.5602 22.684 51.0582 22.99 51.4782 23.386C51.8982 23.782 52.2282 24.262 52.4682 24.826C52.7202 25.378 52.8462 25.996 52.8462 26.68C52.8462 27.364 52.7202 27.988 52.4682 28.552C52.2282 29.104 51.8982 29.578 51.4782 29.974C51.0582 30.37 50.5602 30.676 49.9842 30.892C49.4082 31.108 48.7962 31.216 48.1482 31.216C47.5002 31.216 46.8882 31.108 46.3122 30.892C45.7362 30.676 45.2382 30.37 44.8182 29.974C44.3982 29.578 44.0622 29.104 43.8102 28.552C43.5702 27.988 43.4502 27.364 43.4502 26.68ZM45.6102 26.68C45.6102 27.016 45.6642 27.34 45.7722 27.652C45.8922 27.964 46.0602 28.24 46.2762 28.48C46.5042 28.72 46.7742 28.912 47.0862 29.056C47.3982 29.2 47.7522 29.272 48.1482 29.272C48.5442 29.272 48.8982 29.2 49.2102 29.056C49.5222 28.912 49.7862 28.72 50.0022 28.48C50.2302 28.24 50.3982 27.964 50.5062 27.652C50.6262 27.34 50.6862 27.016 50.6862 26.68C50.6862 26.344 50.6262 26.02 50.5062 25.708C50.3982 25.396 50.2302 25.12 50.0022 24.88C49.7862 24.64 49.5222 24.448 49.2102 24.304C48.8982 24.16 48.5442 24.088 48.1482 24.088C47.7522 24.088 47.3982 24.16 47.0862 24.304C46.7742 24.448 46.5042 24.64 46.2762 24.88C46.0602 25.12 45.8922 25.396 45.7722 25.708C45.6642 26.02 45.6102 26.344 45.6102 26.68ZM53.6985 22.36H56.0385L57.9105 28.408H57.9465L59.6925 22.36H62.0325L63.9045 28.408H63.9405L65.7405 22.36H67.9185L64.9845 31H62.8425L60.7905 25.096H60.7545L58.9365 31H56.7045L53.6985 22.36ZM69.1947 22.36H71.2467V23.746H71.2827C71.4867 23.314 71.7987 22.942 72.2187 22.63C72.6387 22.306 73.2087 22.144 73.9287 22.144C74.5047 22.144 74.9907 22.24 75.3867 22.432C75.7947 22.624 76.1247 22.876 76.3767 23.188C76.6287 23.5 76.8087 23.86 76.9167 24.268C77.0247 24.676 77.0787 25.102 77.0787 25.546V31H74.9187V26.626C74.9187 26.386 74.9067 26.122 74.8827 25.834C74.8587 25.534 74.7927 25.258 74.6847 25.006C74.5887 24.742 74.4327 24.526 74.2167 24.358C74.0007 24.178 73.7067 24.088 73.3347 24.088C72.9747 24.088 72.6687 24.148 72.4167 24.268C72.1767 24.388 71.9727 24.55 71.8047 24.754C71.6487 24.958 71.5347 25.192 71.4627 25.456C71.3907 25.72 71.3547 25.996 71.3547 26.284V31H69.1947V22.36ZM79.5666 17.392H81.7266V31H79.5666V17.392ZM83.7744 26.68C83.7744 25.996 83.8944 25.378 84.1344 24.826C84.3864 24.262 84.7224 23.782 85.1424 23.386C85.5624 22.99 86.0604 22.684 86.6364 22.468C87.2124 22.252 87.8244 22.144 88.4724 22.144C89.1204 22.144 89.7324 22.252 90.3084 22.468C90.8844 22.684 91.3824 22.99 91.8024 23.386C92.2224 23.782 92.5524 24.262 92.7924 24.826C93.0444 25.378 93.1704 25.996 93.1704 26.68C93.1704 27.364 93.0444 27.988 92.7924 28.552C92.5524 29.104 92.2224 29.578 91.8024 29.974C91.3824 30.37 90.8844 30.676 90.3084 30.892C89.7324 31.108 89.1204 31.216 88.4724 31.216C87.8244 31.216 87.2124 31.108 86.6364 30.892C86.0604 30.676 85.5624 30.37 85.1424 29.974C84.7224 29.578 84.3864 29.104 84.1344 28.552C83.8944 27.988 83.7744 27.364 83.7744 26.68ZM85.9344 26.68C85.9344 27.016 85.9884 27.34 86.0964 27.652C86.2164 27.964 86.3844 28.24 86.6004 28.48C86.8284 28.72 87.0984 28.912 87.4104 29.056C87.7224 29.2 88.0764 29.272 88.4724 29.272C88.8684 29.272 89.2224 29.2 89.5344 29.056C89.8464 28.912 90.1104 28.72 90.3264 28.48C90.5544 28.24 90.7224 27.964 90.8304 27.652C90.9504 27.34 91.0104 27.016 91.0104 26.68C91.0104 26.344 90.9504 26.02 90.8304 25.708C90.7224 25.396 90.5544 25.12 90.3264 24.88C90.1104 24.64 89.8464 24.448 89.5344 24.304C89.2224 24.16 88.8684 24.088 88.4724 24.088C88.0764 24.088 87.7224 24.16 87.4104 24.304C87.0984 24.448 86.8284 24.64 86.6004 24.88C86.3844 25.12 86.2164 25.396 86.0964 25.708C85.9884 26.02 85.9344 26.344 85.9344 26.68ZM100.593 29.812H100.539C100.227 30.304 99.8308 30.664 99.3508 30.892C98.8708 31.108 98.3428 31.216 97.7668 31.216C97.3708 31.216 96.9808 31.162 96.5968 31.054C96.2248 30.946 95.8888 30.784 95.5888 30.568C95.3008 30.352 95.0668 30.082 94.8868 29.758C94.7068 29.434 94.6168 29.056 94.6168 28.624C94.6168 28.156 94.7008 27.76 94.8688 27.436C95.0368 27.1 95.2588 26.824 95.5348 26.608C95.8228 26.38 96.1528 26.2 96.5248 26.068C96.8968 25.936 97.2808 25.84 97.6768 25.78C98.0848 25.708 98.4928 25.666 98.9008 25.654C99.3088 25.63 99.6928 25.618 100.053 25.618H100.593V25.384C100.593 24.844 100.407 24.442 100.035 24.178C99.6628 23.902 99.1888 23.764 98.6128 23.764C98.1568 23.764 97.7308 23.848 97.3348 24.016C96.9388 24.172 96.5968 24.388 96.3088 24.664L95.1748 23.53C95.6548 23.038 96.2128 22.684 96.8488 22.468C97.4968 22.252 98.1628 22.144 98.8468 22.144C99.4588 22.144 99.9748 22.216 100.395 22.36C100.815 22.492 101.163 22.666 101.439 22.882C101.715 23.098 101.925 23.35 102.069 23.638C102.225 23.914 102.333 24.196 102.393 24.484C102.465 24.772 102.507 25.054 102.519 25.33C102.531 25.594 102.537 25.828 102.537 26.032V31H100.593V29.812ZM100.467 27.13H100.017C99.7168 27.13 99.3808 27.142 99.0088 27.166C98.6368 27.19 98.2828 27.25 97.9468 27.346C97.6228 27.43 97.3468 27.562 97.1188 27.742C96.8908 27.91 96.7768 28.15 96.7768 28.462C96.7768 28.666 96.8188 28.84 96.9028 28.984C96.9988 29.116 97.1188 29.23 97.2628 29.326C97.4068 29.422 97.5688 29.494 97.7488 29.542C97.9288 29.578 98.1088 29.596 98.2888 29.596C99.0328 29.596 99.5788 29.422 99.9268 29.074C100.287 28.714 100.467 28.228 100.467 27.616V27.13ZM111.701 29.704H111.665C111.353 30.232 110.933 30.616 110.405 30.856C109.877 31.096 109.307 31.216 108.695 31.216C108.023 31.216 107.423 31.102 106.895 30.874C106.379 30.634 105.935 30.31 105.563 29.902C105.191 29.494 104.909 29.014 104.717 28.462C104.525 27.91 104.429 27.316 104.429 26.68C104.429 26.044 104.531 25.45 104.735 24.898C104.939 24.346 105.221 23.866 105.581 23.458C105.953 23.05 106.397 22.732 106.913 22.504C107.429 22.264 107.993 22.144 108.605 22.144C109.013 22.144 109.373 22.186 109.685 22.27C109.997 22.354 110.273 22.462 110.513 22.594C110.753 22.726 110.957 22.87 111.125 23.026C111.293 23.17 111.431 23.314 111.539 23.458H111.593V17.392H113.753V31H111.701V29.704ZM106.589 26.68C106.589 27.016 106.643 27.34 106.751 27.652C106.871 27.964 107.039 28.24 107.255 28.48C107.483 28.72 107.753 28.912 108.065 29.056C108.377 29.2 108.731 29.272 109.127 29.272C109.523 29.272 109.877 29.2 110.189 29.056C110.501 28.912 110.765 28.72 110.981 28.48C111.209 28.24 111.377 27.964 111.485 27.652C111.605 27.34 111.665 27.016 111.665 26.68C111.665 26.344 111.605 26.02 111.485 25.708C111.377 25.396 111.209 25.12 110.981 24.88C110.765 24.64 110.501 24.448 110.189 24.304C109.877 24.16 109.523 24.088 109.127 24.088C108.731 24.088 108.377 24.16 108.065 24.304C107.753 24.448 107.483 24.64 107.255 24.88C107.039 25.12 106.871 25.396 106.751 25.708C106.643 26.02 106.589 26.344 106.589 26.68Z" fill="white"/>
</svg>
